<svg width="49" height="49" fill="none" xmlns="http://www.w3.org/2000/svg"><path fill-rule="evenodd" clip-rule="evenodd" d="M15.218 4.357a2.864 2.864 0 0 0-1.893-.69H6.522a2.866 2.866 0 0 0-2.11.93 2.848 2.848 0 0 0-.735 2.164 42.964 42.964 0 0 0 6.685 18.832l.008.012a42.41 42.41 0 0 0 13.063 13.037l.012.008a43.167 43.167 0 0 0 18.784 6.673 2.865 2.865 0 0 0 2.864-1.699c.16-.363.24-.756.239-1.152V35.65a2.844 2.844 0 0 0-.675-1.912 2.86 2.86 0 0 0-1.776-.98 30.768 30.768 0 0 1-6.714-1.67l-.003-.001a2.867 2.867 0 0 0-3.018.642l-2.867 2.861c-.53.53-1.349.64-2 .27a37.832 37.832 0 0 1-14.201-14.173 1.667 1.667 0 0 1 .27-2.005l2.867-2.861.003-.003a2.847 2.847 0 0 0 .64-3.001l-.002-.004a30.612 30.612 0 0 1-1.673-6.702 2.847 2.847 0 0 0-.965-1.754ZM13.301.333a6.197 6.197 0 0 1 4.088 1.494 6.18 6.18 0 0 1 2.095 3.823l.002.016c.27 2.042.77 4.048 1.492 5.978a6.175 6.175 0 0 1-1.395 6.523l-.006.007-1.956 1.951a34.5 34.5 0 0 0 11.217 11.193l1.966-1.962a6.195 6.195 0 0 1 6.529-1.39c1.934.72 3.944 1.22 5.991 1.489l.015.002a6.194 6.194 0 0 1 3.859 2.124 6.177 6.177 0 0 1 1.467 4.13v6.752a6.177 6.177 0 0 1-4.209 5.878 6.2 6.2 0 0 1-2.54.3l-.03-.002a46.5 46.5 0 0 1-20.245-7.186A45.744 45.744 0 0 1 7.562 27.402 46.298 46.298 0 0 1 .361 7.099l-.003-.026a6.174 6.174 0 0 1 1.595-4.726A6.191 6.191 0 0 1 6.52.333h6.782Z" fill="#06ADA3"/></svg>