<svg width="45" height="45" fill="none" xmlns="http://www.w3.org/2000/svg"><path d="M4.239 12.72c.386.193 1.48.772 2.675-.57.478-.672.957-1.343 1.527-2.005.67-.764.57-2.006-.193-2.677-.764-.671-2.005-.57-2.676.193a24.056 24.056 0 0 0-1.912 2.484c-.561.855-.276 1.995.579 2.575ZM22.894 3.725c1.82 0 3.632.285 5.36.864 1.16.34 2.005-.386 2.391-1.15.285-1.048-.285-2.105-1.24-2.39C27.297.376 25.192 0 22.994 0c-1.048 0-1.912.763-1.912 1.821 0 1.058.763 1.904 1.811 1.904ZM39.923 15.396c.671 1.627 1.048 3.347 1.241 5.067 0 0 .11 2.134 2.106 1.821 1.976-.257 1.719-2.198 1.719-2.198-.193-2.106-.763-4.212-1.526-6.125-.478-.957-1.527-1.435-2.483-1.049-.965.479-1.443 1.527-1.057 2.484ZM33.036 6.98a18.69 18.69 0 0 1 4.018 3.735c.855 1.067 2.299.625 2.584.285.763-.671.956-1.913.285-2.676a23.786 23.786 0 0 0-4.781-4.406c-.865-.57-2.005-.386-2.584.479-.58.864-.386 2.004.478 2.584ZM12.376 6.686a19.22 19.22 0 0 1 4.974-2.198c1.048-.285 1.627-1.342 1.342-2.299C18.407 1.141 17.35.561 16.394.846a21.747 21.747 0 0 0-5.93 2.585c-.865.57-1.15 1.72-.57 2.584.376.58 1.185 1.15 2.482.671ZM43.077 24.676c-1.049-.285-2.005.386-2.198 1.434-.193.865-.782 2.88-.79 3.072-2.53 6.576-8.598 11.202-15.567 11.947-6.86.718-13.534-2.382-17.405-7.955l3.54.782c.956.193 2.004-.387 2.197-1.435.193-.957-.386-2.005-1.434-2.198l-7.457-1.628c-.478-.092-1.968 0-2.299 1.434L.037 37.69c-.193.957.386 2.005 1.434 2.199 1.168.12 2.005-.57 2.299-1.527l.57-2.594c4.257 5.767 11.944 10.034 20.568 9.105 8.698-.938 16.072-6.796 18.94-15.018.093-.24.525-2.244.672-2.971.285-1.058-.386-2.014-1.444-2.207ZM15.134 24.39h8.818c1.048 0 1.82-.864 1.912-1.912V9.399a1.923 1.923 0 0 0-1.912-1.913A1.923 1.923 0 0 0 22.039 9.4v11.166h-6.905a1.923 1.923 0 0 0-1.912 1.913c0 1.048.855 1.913 1.912 1.913Z" fill="#06ADA3"/></svg>