<svg width="45" height="45" fill="none" xmlns="http://www.w3.org/2000/svg"><path d="M35.156 18.281a12.656 12.656 0 1 0-25.312 0c0 5.192 4.154 11.959 12.656 20.065 8.502-8.106 12.656-14.873 12.656-20.065ZM22.5 42.188C12.187 32.813 7.031 24.843 7.031 18.28a15.469 15.469 0 0 1 30.938 0c0 6.562-5.156 14.532-15.469 23.907Z" fill="#06ADA3"/><path fill-rule="evenodd" clip-rule="evenodd" d="M22.5 2.879A15.402 15.402 0 0 0 7.098 18.28c0 3.264 1.282 6.884 3.856 10.863 2.566 3.966 6.414 8.285 11.546 12.954 5.132-4.67 8.98-8.988 11.546-12.954 2.574-3.979 3.856-7.6 3.856-10.863A15.402 15.402 0 0 0 22.5 2.88ZM11.515 7.296a15.535 15.535 0 0 1 26.52 10.985c0 3.298-1.295 6.944-3.877 10.935-2.582 3.99-6.454 8.331-11.613 13.02l-.045.041-.045-.04c-5.159-4.69-9.03-9.03-11.613-13.021-2.582-3.991-3.877-7.637-3.877-10.935 0-4.12 1.637-8.071 4.55-10.985Zm1.989 1.989a12.723 12.723 0 0 1 21.719 8.996c0 2.613-1.045 5.616-3.15 8.975-2.105 3.36-5.274 7.083-9.527 11.138l-.046.043-.046-.043c-4.253-4.055-7.421-7.778-9.527-11.138-2.105-3.36-3.15-6.362-3.15-8.975 0-3.374 1.34-6.61 3.727-8.996ZM22.5 5.691a12.59 12.59 0 0 0-12.59 12.59c0 2.579 1.032 5.556 3.13 8.905 2.09 3.335 5.234 7.034 9.46 11.068 4.226-4.034 7.37-7.733 9.46-11.068 2.098-3.349 3.13-6.326 3.13-8.905A12.59 12.59 0 0 0 22.5 5.691Z" fill="#06ADA3"/><path d="M22.5 19.688a2.812 2.812 0 1 0 0-5.625 2.812 2.812 0 0 0 0 5.624Zm0 2.812a5.625 5.625 0 1 1 0-11.25 5.625 5.625 0 0 1 0 11.25Zm15.188 8.438 4.5 11.25H29.53v-2.813H15.47v2.813H2.813l4.5-11.25h30.375Zm-3.03 0H10.342l-3.375 8.437h31.066l-3.375-8.438Z" fill="#06ADA3"/><path fill-rule="evenodd" clip-rule="evenodd" d="M22.5 11.316a5.558 5.558 0 1 0 0 11.117 5.558 5.558 0 0 0 0-11.117Zm-4.024 1.535a5.691 5.691 0 1 1 8.048 8.048 5.691 5.691 0 0 1-8.049-8.048Zm1.988 1.988a2.879 2.879 0 1 1 4.072 4.072 2.879 2.879 0 0 1-4.072-4.072Zm2.036-.71a2.746 2.746 0 1 0 0 5.492 2.746 2.746 0 0 0 0-5.492ZM7.267 30.87h30.465l4.553 11.383h-12.82V39.44h-13.93v2.813H2.715L7.266 30.87Zm30.668 8.438-3.322-8.305H10.386l-3.321 8.305h30.87Zm-27.692-8.305L6.868 39.44h8.534v2.68H2.911l4.446-11.117h2.886Zm24.514 0 3.375 8.437h-8.534v2.68h12.491l-4.447-11.117h-2.886Z" fill="#06ADA3"/></svg>