<svg width="82" height="81" fill="none" xmlns="http://www.w3.org/2000/svg"><g filter="url(#a)"><path fill-rule="evenodd" clip-rule="evenodd" d="M41.178.82C21.121.82 4.861 16.789 4.861 36.484c0 19.695 16.26 35.662 36.317 35.662 20.058 0 36.318-15.967 36.318-35.662S61.236.82 41.178.82ZM56.92 30.454a3.187 3.187 0 0 0 .448-3.624 3.254 3.254 0 0 0-.819-1.002 3.36 3.36 0 0 0-3.7-.352c-.386.208-.726.49-1 .828L37.652 43.028l-7.346-7.216a3.335 3.335 0 0 0-2.322-.91 3.332 3.332 0 0 0-2.306.95 3.213 3.213 0 0 0-.967 2.263 3.21 3.21 0 0 0 .927 2.28l9.904 9.727c.325.318.713.567 1.141.73a3.355 3.355 0 0 0 2.661-.12c.41-.2.775-.481 1.068-.827L56.92 30.453Z" fill="#4DBCBC"/></g><defs><filter id="a" x=".861" y=".821" width="80.635" height="79.324" filterUnits="userSpaceOnUse" color-interpolation-filters="sRGB"><feFlood flood-opacity="0" result="BackgroundImageFix"/><feColorMatrix in="SourceAlpha" values="0 0 0 0 0 0 0 0 0 0 0 0 0 0 0 0 0 0 127 0" result="hardAlpha"/><feOffset dy="4"/><feGaussianBlur stdDeviation="2"/><feComposite in2="hardAlpha" operator="out"/><feColorMatrix values="0 0 0 0 0 0 0 0 0 0 0 0 0 0 0 0 0 0 0.25 0"/><feBlend in2="BackgroundImageFix" result="effect1_dropShadow_386_150"/><feBlend in="SourceGraphic" in2="effect1_dropShadow_386_150" result="shape"/></filter></defs></svg>