<svg width="90" height="90" fill="none" xmlns="http://www.w3.org/2000/svg"><circle cx="45" cy="45" r="45" fill="#4DBCAA" fill-opacity=".62"/><path d="M45.726 43.812V20.06c0-.256-.325-.463-.726-.463-.4 0-.726.207-.726.463v23.75c0 .257.325.464.726.464.4 0 .726-.207.726-.463Z" fill="#fff"/><path d="M52.554 27.407a.309.309 0 0 0-.084-.212l-7.139-7.499a.28.28 0 0 0-.201-.087.28.28 0 0 0-.202.087l-7.135 7.5a.31.31 0 0 0 0 .422.275.275 0 0 0 .402 0l6.935-7.287 6.937 7.287a.275.275 0 0 0 .403 0 .306.306 0 0 0 .084-.211Z" fill="#fff" stroke="#fff" stroke-width=".682"/></svg>