<svg width="86" height="74" fill="none" xmlns="http://www.w3.org/2000/svg"><path d="M86 19.382c0-.904-.733-1.636-1.636-1.636H72.086V8.374c.01-.167.115-1.422.833-2.594.963-1.572 2.572-2.305 4.917-2.24 1.276.035 2.957.29 3.715 1.305.75 1.003.382 2.437.382 2.436a1.636 1.636 0 1 0 3.146.9c.086-.299.787-2.985-.876-5.254C82.97 1.244 80.859.35 77.927.269c-4.535-.128-6.793 2.078-7.886 3.949-1.132 1.936-1.22 3.854-1.227 4.066V17.746H46.57V8.375c.011-.168.116-1.422.834-2.595.963-1.572 2.572-2.304 4.918-2.24 1.276.036 2.956.29 3.715 1.305.75 1.003.382 2.437.382 2.437a1.636 1.636 0 1 0 3.146.899c.085-.299.786-2.984-.877-5.254C57.457 1.245 55.345.35 52.414.27c-4.54-.126-6.794 2.078-7.887 3.949-1.132 1.936-1.221 3.854-1.228 4.066V17.746H1.636c-.903 0-1.636.732-1.636 1.636v28.04a1.64 1.64 0 0 0 1.636 1.538c2.386 0 3.493.876 4.894 1.984 1.594 1.261 3.401 2.69 6.924 2.69 3.524 0 5.33-1.429 6.924-2.69 1.402-1.108 2.508-1.984 4.894-1.984 2.385 0 3.492.876 4.893 1.984 1.594 1.261 3.401 2.69 6.924 2.69 3.524 0 5.33-1.429 6.925-2.69 1.4-1.108 2.508-1.984 4.893-1.984 2.386 0 3.493.876 4.894 1.984 1.594 1.261 3.4 2.69 6.924 2.69 3.524 0 5.331-1.429 6.925-2.69 1.402-1.108 2.509-1.984 4.895-1.984 2.385 0 3.492.876 4.894 1.984 1.594 1.261 3.402 2.607 6.925 2.69.943.023 1.636-.732 1.636-1.636l-.001-.03H86V19.382Zm-42.702 3.973v24.033c-.47.322-.9.662-1.315.99-1.401 1.108-2.508 1.984-4.894 1.984-2.385 0-3.492-.876-4.893-1.984-1.594-1.261-3.4-2.69-6.924-2.69-3.523 0-5.33 1.429-6.924 2.69-1.401 1.108-2.508 1.984-4.894 1.984-2.385 0-3.492-.876-4.894-1.984-.847-.67-1.757-1.386-2.95-1.91a8.96 8.96 0 0 0-.494-.199l-.05-.018a8.555 8.555 0 0 0-.536-.175l-.026-.007a9.061 9.061 0 0 0-.647-.16 9.495 9.495 0 0 0-.585-.105V21.018h40.026v2.337Zm25.515 23.007c-1.316.532-2.289 1.3-3.193 2.016-1.402 1.108-2.509 1.984-4.895 1.984-2.385 0-3.492-.876-4.894-1.984-1.593-1.261-3.4-2.69-6.924-2.69-.877 0-1.648.088-2.336.24v-4.044h22.242v4.478Zm0-7.75H46.571v-7.147h22.242v7.146Zm0-15.257v4.838H46.571V21.018h22.242v2.337ZM79.47 48.378c-1.594-1.261-3.4-2.69-6.925-2.69-.157 0-.308.006-.459.011V21.018h10.642v29.175c-1.347-.306-2.223-.996-3.258-1.815ZM84.364 60.413c-2.386 0-3.493-.876-4.895-1.984-1.594-1.261-3.4-2.69-6.925-2.69-3.523 0-5.33 1.429-6.924 2.69-1.402 1.108-2.51 1.984-4.895 1.984-2.386 0-3.492-.876-4.894-1.984-1.594-1.261-3.4-2.69-6.924-2.69-3.523 0-5.33 1.429-6.924 2.69-1.401 1.108-2.508 1.984-4.894 1.984-2.385 0-3.492-.876-4.893-1.984-1.594-1.261-3.4-2.69-6.924-2.69-3.523 0-5.33 1.429-6.924 2.69-1.401 1.108-2.508 1.984-4.894 1.984-2.385 0-3.492-.876-4.894-1.984-1.594-1.261-3.4-2.69-6.924-2.69a1.636 1.636 0 1 0 0 3.272c2.386 0 3.493.875 4.894 1.984 1.594 1.261 3.401 2.69 6.924 2.69 3.524 0 5.33-1.429 6.924-2.69 1.402-1.109 2.508-1.984 4.894-1.984 2.385 0 3.492.875 4.893 1.984 1.594 1.261 3.401 2.69 6.924 2.69 3.524 0 5.33-1.429 6.925-2.69 1.4-1.109 2.508-1.984 4.893-1.984 2.386 0 3.493.875 4.894 1.984 1.594 1.261 3.4 2.69 6.924 2.69 3.524 0 5.331-1.429 6.925-2.69 1.402-1.109 2.509-1.984 4.895-1.984 2.385 0 3.492.875 4.894 1.984 1.594 1.261 3.401 2.69 6.925 2.69a1.636 1.636 0 1 0 0-3.272ZM84.364 70.464c-2.386 0-3.493-.876-4.895-1.985-1.594-1.26-3.4-2.69-6.925-2.69-3.523 0-5.33 1.43-6.924 2.69-1.402 1.11-2.51 1.985-4.895 1.985-2.386 0-3.492-.876-4.894-1.985-1.594-1.26-3.4-2.69-6.924-2.69-3.523 0-5.33 1.43-6.924 2.69-1.401 1.11-2.508 1.985-4.894 1.985-2.385 0-3.492-.876-4.893-1.984-1.594-1.262-3.4-2.69-6.924-2.69-3.523 0-5.33 1.428-6.924 2.69-1.401 1.108-2.508 1.984-4.894 1.984-2.385 0-3.492-.876-4.894-1.985-1.594-1.26-3.4-2.69-6.924-2.69a1.636 1.636 0 1 0 0 3.272c2.386 0 3.493.876 4.894 1.985 1.594 1.26 3.401 2.69 6.924 2.69 3.524 0 5.33-1.43 6.924-2.69 1.402-1.109 2.508-1.985 4.894-1.985 2.385 0 3.492.876 4.893 1.985 1.594 1.26 3.401 2.69 6.924 2.69 3.524 0 5.33-1.43 6.925-2.69 1.4-1.109 2.508-1.985 4.893-1.985 2.386 0 3.493.876 4.894 1.985 1.594 1.26 3.4 2.69 6.924 2.69 3.524 0 5.331-1.43 6.925-2.69 1.402-1.109 2.509-1.985 4.895-1.985 2.385 0 3.492.876 4.894 1.985 1.594 1.26 3.401 2.69 6.925 2.69a1.636 1.636 0 1 0 0-3.272Z" fill="#390303" stroke="#390303" stroke-width=".234"/></svg>