<svg width="86" height="70" viewBox="0 0 86 70" fill="none" xmlns="http://www.w3.org/2000/svg">
<path d="M11.5571 24.1475H0V29.5225H11.5571V24.1475Z" fill="#390303" stroke="#390303" stroke-width="0.167969"/>
<path d="M76.7617 -14H63.5658H22.4342H8.56641H0V21.944H11.5571C15.1736 14.9931 19.571 -2.13721 21.4763 -9.96875H64.5237C66.429 -2.13721 70.8264 14.9931 74.4429 21.944H86V-14H76.7617Z" fill="#390303" stroke="#390303" stroke-width="0.167969"/>
<path d="M64.2402 57.2188H21.7598L10.8772 31.7478H0V68.3453C0 68.3453 4.07862 71.6128 11.5571 68.3453C19.0356 65.0777 19.0356 70.9593 26.514 68.3453L23.4829 61.25H62.5171L59.486 68.3453C66.9644 70.9593 66.9644 65.0777 74.4429 68.3453C81.9214 71.6128 86 68.3453 86 68.3453V31.7478H75.1227L64.2402 57.2188Z" fill="#390303" stroke="#390303" stroke-width="0.167969"/>
<path d="M86 24.1475H74.4429V29.5225H86V24.1475Z" fill="#390303" stroke="#390303" stroke-width="0.167969"/>
<path d="M30.4696 35.8634L31.6572 37.051L59.4492 9.25904L58.2616 8.07145L30.4696 35.8634Z" fill="#390303" stroke="#390303" stroke-width="0.167969"/>
<path d="M60.7523 27.328L59.5647 26.1404L40.324 45.3811L41.5115 46.5687L60.7523 27.328Z" fill="#390303" stroke="#390303" stroke-width="0.167969"/>
</svg>
