<svg width="86" height="74" fill="none" xmlns="http://www.w3.org/2000/svg"><path d="M0 1.244h83.291c.33 0 .644.063.931.189.406.175 1.17.937 1.33 1.336.12.287.19.602.19.931v16.601c0 .329-.064.644-.19.938a2.57 2.57 0 0 1-.532.798l-.028.02a2.429 2.429 0 0 1-1.7.7H49.396a.18.18 0 0 1-.182-.181V4.134H22.802v4.822l8.601 9.784a1.355 1.355 0 0 1-.119 1.911l-.014.007a1.264 1.264 0 0 1-.406.238 1.315 1.315 0 0 1-.462.084H4.563c-.37 0-.714-.154-.952-.399a1.344 1.344 0 0 1-.399-.952c0-.196.042-.378.12-.546.076-.175.188-.329.328-.455l8.854-9.679V4.134H0v-2.89Zm22.08 40.998c.799 0 1.45.65 1.45 1.449 0 .798-.651 1.448-1.45 1.448-.797 0-1.448-.65-1.448-1.448 0-.798.651-1.449 1.449-1.449Zm-9.237 0c.797 0 1.448.65 1.448 1.449 0 .798-.65 1.448-1.448 1.448-.798 0-1.45-.65-1.45-1.448 0-.798.652-1.449 1.45-1.449Zm9.987-7.775v3.562h60.728a2.461 2.461 0 0 1 2.449 2.45v29.828a2.455 2.455 0 0 1-2.443 2.45H2.527a2.47 2.47 0 0 1-2.45-2.45V40.478c0-1.35 1.099-2.45 2.45-2.45H12.1v-3.561h3.184v1.532H13.83v2.03h7.28v-2.03h-1.457v-1.532h3.178Zm60.469 6.263h-20.73v29.325h20.736V40.73h-.007Zm-23.432 0H32.733v6.53h27.134v-6.53Zm-29.836 0H2.771v29.325h27.26V40.73Zm2.702 29.318h27.134V49.962H32.733v20.086Zm33.055-27.806c.196 0 .385.042.553.112l.007.007c.175.07.329.182.462.308a1.443 1.443 0 0 1 .427 1.022c0 .196-.042.378-.112.553a1.537 1.537 0 0 1-.315.469l-.014.007c-.133.126-.287.23-.462.3-.168.07-.357.112-.553.112a1.443 1.443 0 0 1-1.008-.412l-.021-.014a1.4 1.4 0 0 1-.308-.47l-.007-.006a1.443 1.443 0 0 1 .322-1.568c.133-.133.294-.238.469-.315l.007-.007c.182-.063.364-.098.553-.098ZM52.008 4.134h-.092v15.908h31.138V4.134H52.007Zm2.659 1.77c.133-.125.287-.23.462-.3.168-.07.357-.112.553-.112.196 0 .385.042.552.112l.008.007c.175.07.329.182.461.308a1.444 1.444 0 0 1 .427 1.022c0 .196-.042.385-.112.552l-.007.007c-.07.168-.175.322-.3.448l-.021.021a1.444 1.444 0 0 1-1.008.413 1.445 1.445 0 0 1-1.022-.427 1.444 1.444 0 0 1-.427-1.022c0-.195.042-.377.112-.552.077-.175.182-.336.315-.47l.007-.006Z" fill="#390303" stroke="#390303" stroke-width=".7"/></svg>