<svg width="86" height="86" fill="none" xmlns="http://www.w3.org/2000/svg"><path d="m20.61 3.917.285 3.673-2.805 2.394 3.595.868 1.41 3.402 1.932-3.138 3.662-.294-2.385-2.807.857-3.58-3.41 1.402-3.141-1.92Zm57.328 1.458a2.688 2.688 0 1 0 0 5.375 2.688 2.688 0 0 0 0-5.375ZM40.279 7.139a2.688 2.688 0 1 0 0 5.375 2.688 2.688 0 0 0 0-5.375Zm30.89 1.149c-1.546.292-2.974 1.206-4.351 2.398-1.276 1.097-2.47 2.463-3.477 3.939-3.158.506-6.316 1.792-8.432 3.55-2.704 2.216-5.106 6.012-6.416 9.926-1.243.52-2.42 1.142-3.377 1.814-2.603 1.831-3.947 5.342-4.938 8.399a50.268 50.268 0 0 0-1.478 5.761l2.99.537s.453-2.52 1.36-5.358c.924-2.838 2.486-5.929 3.813-6.853.219-.151.504-.319.756-.47-.1.957-.1 1.915.05 2.822.303 1.914 1.344 3.745 3.192 4.736 1.31.706 2.788.538 4.031.034 1.243-.52 2.352-1.377 3.31-2.385.957-1.008 1.746-2.2 2.216-3.46.47-1.26.639-2.688.034-4.015h-.017c-.655-1.41-1.915-2.318-3.258-2.704-1.344-.386-2.789-.37-4.233-.151-.252.033-.487.117-.74.168 1.244-2.654 3.024-5.157 4.62-6.484 1.041-.857 2.788-1.68 4.653-2.284-.235.638-.42 1.276-.504 1.931-.269 1.764.117 3.679 1.528 4.99 1.025.94 2.402 1.09 3.612.89 1.192-.202 2.351-.74 3.392-1.428 1.042-.706 1.966-1.58 2.62-2.604.656-1.024 1.093-2.335.673-3.645v-.017c-.555-1.691-1.932-2.853-3.46-3.404-.655-.236-1.344-.368-2.05-.447.487-.548.991-1.06 1.495-1.498 1.142-.981 2.301-1.596 2.957-1.719l-.572-2.97ZM29.36 14.175l-2.553 1.606 5.795 9.28-9.474.487 4.451 9.709 2.755-1.277-2.603-5.644 10.179-.52-8.55-13.641Zm36.348 3.243c1.025-.017 1.932.101 2.604.353.907.32 1.36.722 1.596 1.478.067.185.033.555-.32 1.109-.369.57-1.024 1.21-1.763 1.713-.756.504-1.596.857-2.217.957-.639.118-.924 0-1.059-.117-.587-.538-.755-1.21-.587-2.335.134-.907.554-1.999 1.175-3.124.202 0 .387-.034.571-.034ZM15.955 20.66a2.687 2.687 0 1 0 0 5.375 2.687 2.687 0 0 0 0-5.375Zm59.816 6.249-2.419 2.788-3.662-.302 1.915 3.157-1.428 3.393 3.595-.84 2.788 2.402.32-3.678 3.14-1.915-3.393-1.428-.856-3.577ZM55.027 29.68c.487.017.94.084 1.293.185.722.201 1.109.504 1.377 1.075.151.319.168.907-.117 1.68-.286.789-.874 1.696-1.58 2.452-.705.756-1.561 1.36-2.267 1.646-.705.285-1.142.269-1.427.117h-.017c-.974-.537-1.445-1.31-1.63-2.553-.167-1.058-.05-2.402.303-3.846.823-.286 1.646-.52 2.435-.638a11.438 11.438 0 0 1 1.63-.118ZM21.03 38.398c-1.21-.034-1.966.252-2.436.722s-.756 1.226-.722 2.435c.034 1.227.437 2.84 1.21 4.636 1.545 3.612 4.585 7.962 8.666 12.06 4.082 4.082 8.45 7.106 12.06 8.65 1.781.774 3.394 1.177 4.62 1.21 1.226.05 1.965-.252 2.435-.722s.773-1.21.723-2.435c-.034-1.227-.437-2.84-1.21-4.636-1.545-3.595-4.569-7.962-8.65-12.044-4.082-4.098-8.449-7.122-12.06-8.667-1.798-.773-3.41-1.176-4.636-1.21Zm38.968 5.257-5.542 9.07-4.888-4.686-2.083 2.184 7.575 7.273 5.678-9.272 6.5 5.425 15-6.416-1.176-2.788-13.32 5.71-7.744-6.5Zm-44.305 2.133-2.963 9.726C19.686 63.76 27.8 68.397 36.6 71.42l3.629-1.108a29.432 29.432 0 0 1-1.63-.639c-4.098-1.746-8.684-4.972-12.984-9.288-4.316-4.317-7.541-8.903-9.295-13.001a21.567 21.567 0 0 1-.627-1.596Zm-4 13.135L9.338 66.65c4.853 4.535 9.91 6.584 15.218 8.432l7.29-2.217c-7.256-2.956-14.11-7.273-20.155-13.942Zm50.12.202a2.688 2.688 0 1 0 0 5.375 2.688 2.688 0 0 0 0-5.375ZM8.367 69.858 4.958 81.045l14.829-4.519c-3.825-1.528-7.69-3.476-11.42-6.668Z" fill="#390303" stroke="#390303" stroke-width=".168"/></svg>