<svg width="86" height="67" fill="none" xmlns="http://www.w3.org/2000/svg"><path d="M23.973 1.64c-9.373 0-17.04 7.612-17.04 16.985v3.924c-3.936.994-6.88 4.588-6.88 8.815 0 3.81 2.46 6.947 5.806 8.277l4.192 10.911.054.162h.054a7.363 7.363 0 0 0 1.989 3.117l-3.01 6.074c-1.203 2.398-.25 5.355 2.15 6.557.691.35 1.464.538 2.203.538 1.794 0 3.554-.988 4.408-2.688l3.762-7.632H64.34l3.762 7.632c.853 1.7 2.614 2.688 4.408 2.688.739 0 1.511-.188 2.204-.538 2.398-1.202 3.352-4.159 2.15-6.557l-3.01-6.074a7.363 7.363 0 0 0 1.988-3.117h.054l.054-.162 4.192-10.91c3.346-1.331 5.805-4.469 5.805-8.278 0-4.227-2.943-7.821-6.88-8.815v-3.924c0-9.373-7.666-16.985-17.038-16.985H23.972Zm0 3.44h38.055c7.511 0 13.598 6.033 13.598 13.545v3.762c-3.279.464-5.98 2.695-7.148 5.698h-.054l-2.795 6.396c-.229-.074-.363-.128-.645-.215-1.297-.39-3.131-.9-5.321-1.397-4.388-.995-10.26-1.99-16.448-1.99-6.188 0-12.174.988-16.663 1.99a83.242 83.242 0 0 0-5.482 1.397c-.302.087-.457.141-.699.215l-2.633-5.912h-.054c-1.048-3.245-3.864-5.691-7.31-6.182v-3.762c0-7.512 6.087-13.545 13.598-13.545ZM9.136 25.72c2.56 0 4.69 1.693 5.375 4.031v.108l.054.107L17.9 37.33l.806 1.774 1.451-.914.162-.108c.026-.02 0 .034.053 0 .067-.026.121-.02.215-.053.343-.115.82-.296 1.452-.484 1.27-.37 3.104-.86 5.267-1.344 4.32-.96 10.092-1.881 15.91-1.881s11.482.927 15.695 1.881c2.103.477 3.83.974 5.053 1.344.61.188 1.122.316 1.45.43.162.054.25.134.323.161h.054l1.505.914.806-1.774 3.494-7.794v-.053l.054-.054c.8-2.137 2.788-3.655 5.213-3.655a5.634 5.634 0 0 1 5.644 5.644c0 2.593-1.76 4.716-4.138 5.375l-.86.215-.27.806-4.568 11.717v.054l-.054.054c-.504 1.754-1.989 2.66-3.655 3.171-1.43.444-2.566.484-2.902.484a1.744 1.744 0 0 0-1.398 0H21.285a1.714 1.714 0 0 0-1.29 0c-.282 0-1.478-.027-2.956-.484-1.667-.51-3.151-1.417-3.655-3.171l-.054-.054v-.107L8.761 37.76l-.269-.806-.86-.215c-2.385-.659-4.138-2.782-4.138-5.375a5.634 5.634 0 0 1 5.643-5.644Zm5.967 29.939c.302.12.625.289.913.376.692.215 1.338.336 1.936.43l-3.172 6.289a1.417 1.417 0 0 1-1.935.645c-.739-.37-1.014-1.196-.645-1.935l2.903-5.805Zm55.792 0 2.903 5.805c.37.739.094 1.565-.645 1.935-.215.107-.43.16-.645.16a1.405 1.405 0 0 1-1.29-.805l-3.171-6.29a13.413 13.413 0 0 0 1.934-.43c.29-.086.612-.254.914-.375Z" fill="#390303" stroke="#390303" stroke-width="1.72"/></svg>