<svg width="86" height="65" fill="none" xmlns="http://www.w3.org/2000/svg"><path d="M27.52 1.36c-.86 0-1.82.403-2.365 1.129-.544.725-.645 1.545-.591 2.311.114 1.532.866 3.07 2.15 4.569 2.566 2.996 7.41 5.751 14.566 5.751 6.86 0 10.69-.92 13.33-1.827 2.64-.907 3.776-1.613 5.859-1.613s5.576.786 8.385 3.064c2.808 2.277 5.106 5.966 5.106 12.416H63.64v-1.989c0-2.667-2.224-4.891-4.891-4.891H49.61c-2.667 0-4.891 2.224-4.891 4.891v2.043c-13.303.598-26.13 8.09-38.7 26.122-.06.067-.114.141-.161.215a1.85 1.85 0 0 0-.323.43 2.14 2.14 0 0 0-.107.215c-1.66 2.426-3.3 5.046-4.945 7.848a2.24 2.24 0 0 0-.108.161c-.013.02-.04.034-.053.054l-.054.053c-.02.034-.034.074-.054.108l-.054.054v.107a.802.802 0 0 0-.054.108l-.053.053v.162L0 62.957V63.657a.802.802 0 0 0 .054.108v.053a.802.802 0 0 0 .053.108.802.802 0 0 0 .054.108v.053l.054.054c.047.074.1.148.161.215a.802.802 0 0 0 .054.108l.054.053h.053a.802.802 0 0 0 .054.108h.054c.034.04.067.074.107.107h.054c.034.02.074.04.108.054.053.04.107.074.161.108.1.046.215.08.323.107h.215c.107.007.214.007.322 0H82.56c1.881 0 3.44-1.559 3.44-3.44v-4.569a1.799 1.799 0 0 0 0-.269V56.4a1.299 1.299 0 0 0 0-.322V29.201a1.299 1.299 0 0 0 0-.322v-.215a1.152 1.152 0 0 0 0-.215c-.08-9.54-2.782-16.4-7.418-20.801C73.88 3.18 67.37 1.36 60.2 1.36H27.52Zm.538 3.44H60.2c6.591 0 12.12 1.62 16.017 5.321 3.642 3.454 5.994 8.882 6.29 17.039H77.4c0-7.31-2.835-12.221-6.396-15.104-3.561-2.882-7.66-3.816-10.535-3.816-2.876 0-4.63 1.015-6.988 1.828-2.358.813-5.637 1.612-12.201 1.612-6.269 0-10.125-2.405-11.986-4.569-.854-.994-1.156-1.84-1.236-2.311ZM49.61 23.72h9.138c.806 0 1.451.645 1.451 1.451v1.989H48.16v-1.989c0-.806.645-1.451 1.451-1.451Zm-3.117 6.88H82.56v22.36H10.535C22.582 36.52 34.305 30.6 46.494 30.6Zm-5.214 8.6a3.438 3.438 0 0 0-3.44 3.44 3.438 3.438 0 0 0 3.44 3.44 3.438 3.438 0 0 0 3.44-3.44 3.438 3.438 0 0 0-3.44-3.44Zm12.04 0a3.438 3.438 0 0 0-3.44 3.44 3.438 3.438 0 0 0 3.44 3.44 3.438 3.438 0 0 0 3.44-3.44 3.438 3.438 0 0 0-3.44-3.44Zm12.04 0a3.438 3.438 0 0 0-3.44 3.44 3.438 3.438 0 0 0 3.44 3.44 3.438 3.438 0 0 0 3.44-3.44 3.438 3.438 0 0 0-3.44-3.44ZM8.116 56.4H82.56v5.16H4.784a135.45 135.45 0 0 1 3.332-5.16Z" fill="#390303" stroke="#390303" stroke-width="1.72"/></svg>