<svg width="87" height="87" fill="none" xmlns="http://www.w3.org/2000/svg"><path d="M11.513 4.846a11.354 11.354 0 0 1 11.977 2.62c4.433 4.433 4.433 11.622 0 16.054-4.434 4.434-11.622 4.434-16.055 0a11.353 11.353 0 0 1-2.601-12.026 2.02 2.02 0 1 0-3.782-1.42 15.393 15.393 0 0 0 3.526 16.303c6.011 6.012 15.757 6.012 21.769 0 6.01-6.01 6.01-15.757 0-21.768A15.394 15.394 0 0 0 10.11 1.058a2.02 2.02 0 1 0 1.402 3.788Z" fill="#390303"/><path d="m8.92 4.647 5.216 5.214a1.097 1.097 0 0 1 0 1.55l-2.755 2.754a1.096 1.096 0 0 1-1.55 0L4.644 8.98a2.02 2.02 0 1 0-2.856 2.857l5.187 5.186a5.136 5.136 0 0 0 7.263 0l2.754-2.754a5.137 5.137 0 0 0 .001-7.263L11.777 1.79A2.02 2.02 0 0 0 8.92 4.647ZM75.5 82.227a11.354 11.354 0 0 1-11.978-2.62c-4.432-4.433-4.432-11.622 0-16.054 4.434-4.434 11.622-4.434 16.056 0a11.353 11.353 0 0 1 2.6 12.026A2.02 2.02 0 1 0 85.96 77a15.393 15.393 0 0 0-3.526-16.303c-6.012-6.012-15.758-6.012-21.77 0-6.01 6.01-6.01 15.757 0 21.768a15.394 15.394 0 0 0 16.237 3.551 2.02 2.02 0 0 0-1.402-3.788Z" fill="#390303"/><path d="m78.092 82.426-5.215-5.214a1.096 1.096 0 0 1 0-1.55l2.754-2.755a1.095 1.095 0 0 1 1.55 0l5.187 5.187a2.02 2.02 0 1 0 2.856-2.857l-5.187-5.186a5.136 5.136 0 0 0-7.264 0l-2.753 2.754a5.135 5.135 0 0 0 0 7.263l5.215 5.215a2.02 2.02 0 1 0 2.857-2.857ZM59.525 65.81 20.934 27.22a2.02 2.02 0 1 0-2.857 2.856l38.591 38.591a2.02 2.02 0 1 0 2.857-2.857ZM26.907 20.544l39.49 39.49a2.02 2.02 0 0 0 2.856-2.857l-39.49-39.49a2.02 2.02 0 1 0-2.856 2.857Zm25.242 11.098L69.58 14.211a2.02 2.02 0 1 0-2.856-2.857L49.291 28.785a2.02 2.02 0 1 0 2.857 2.857Zm21.146-14.786L55.29 34.686a2.02 2.02 0 0 0 2.842 2.87l18.006-17.83a2.02 2.02 0 0 0-2.843-2.87Z" fill="#390303"/><path d="M86.28 5.922a2.02 2.02 0 0 1 .48 2.088l-2.782 8.042A2.02 2.02 0 0 1 82.73 17.3l-8.043 2.783a2.02 2.02 0 0 1-2.089-.48l-5.26-5.26a2.02 2.02 0 0 1-.48-2.09l2.782-8.041a2.02 2.02 0 0 1 1.248-1.249L78.93.181a2.02 2.02 0 0 1 2.089.48l5.26 5.26Zm-7.224-1.51L73.137 6.46l-2.047 5.92 3.471 3.472 5.92-2.049 2.047-5.919-3.472-3.472Zm-41.54 53.713L13.59 82.05c-.74.739-1.628.835-1.947.516l-7.352-7.352c-.318-.318-.222-1.206.518-1.946L28.688 49.39a2.02 2.02 0 0 0-2.857-2.857L1.953 70.41c-2.198 2.2-2.565 5.61-.518 7.659l7.353 7.353c2.05 2.048 5.462 1.68 7.66-.517l23.925-23.925a2.02 2.02 0 1 0-2.857-2.856Z" fill="#390303"/></svg>