<svg width="69" height="75" viewBox="0 0 69 75" fill="none" xmlns="http://www.w3.org/2000/svg">
<path d="M25.6125 67.125H43.3875C45.6094 67.125 47.8313 68.1125 49.3125 69.5938C50.7938 71.075 53.0156 72.0625 55.2375 72.0625H63.6313C65.1125 72.0625 66.3469 70.5812 66.1 69.1L55.7313 11.0844C54.9906 6.39375 50.7938 2.9375 46.1031 2.9375H23.1438C18.2063 2.9375 14.2563 6.39375 13.2688 11.0844L2.90002 69.1C2.65315 70.5812 3.88752 72.0625 5.36877 72.0625H13.7625C15.9844 72.0625 18.2063 71.075 19.6875 69.5938C21.1688 68.1125 23.3906 67.125 25.6125 67.125Z" stroke="#390303" stroke-width="4.9375" stroke-miterlimit="10" stroke-linecap="round" stroke-linejoin="round"/>
<path d="M40.6719 17.75H28.3281C26.3531 17.75 24.625 16.0219 24.625 14.0469C24.625 12.0719 26.3531 10.3438 28.3281 10.3438H40.6719C42.6469 10.3438 44.375 12.0719 44.375 14.0469C44.375 16.0219 42.6469 17.75 40.6719 17.75Z" stroke="#390303" stroke-width="4.9375" stroke-miterlimit="10" stroke-linecap="round" stroke-linejoin="round"/>
<path d="M30.3031 30.0938L17.9594 49.8438C15.9844 53.0532 18.4531 57.25 22.1563 57.25H46.8438C50.7938 57.25 53.2625 53.0532 51.0406 49.8438L38.6969 30.0938C36.9688 26.8844 32.0313 26.8844 30.3031 30.0938Z" stroke="#390303" stroke-width="4.9375" stroke-miterlimit="10" stroke-linecap="round" stroke-linejoin="round"/>
<path d="M34.5 37.5V42.4375" stroke="#390303" stroke-width="4.9375" stroke-miterlimit="10" stroke-linecap="round" stroke-linejoin="round"/>
<path d="M34.5 52.3125C34.2531 52.3125 33.7594 52.3125 33.5125 52.0656C33.2656 51.8187 33.0188 51.8187 32.7719 51.5719C32.2781 51.0781 32.0312 50.5844 32.0312 49.8437C32.0312 49.1031 32.2781 48.6094 32.7719 48.1156C33.0188 47.8687 33.2656 47.6219 33.5125 47.6219C34.5 47.1281 35.4875 47.375 36.2281 48.1156C36.7219 48.6094 36.9688 49.1031 36.9688 49.8437C36.9688 50.0906 36.9688 50.0906 36.9688 50.3375C36.9688 50.5844 36.9687 50.5844 36.7219 50.8312C36.7219 51.0781 36.475 51.0781 36.475 51.325L36.2281 51.5719C35.7344 52.0656 35.2406 52.3125 34.5 52.3125Z" fill="#390303" stroke="#390303" stroke-width="2.46875"/>
</svg>
